<svg xmlns="http://www.w3.org/2000/svg" viewBox="0 0 64 64" role="img" aria-label="AllergySafe MJ logo">
  <defs>
    <linearGradient id="bg" x1="12" y1="4" x2="54" y2="60" gradientUnits="userSpaceOnUse">
      <stop offset="0" stop-color="#243245"/>
      <stop offset="1" stop-color="#101827"/>
    </linearGradient>
    <linearGradient id="mint" x1="15" y1="10" x2="51" y2="56" gradientUnits="userSpaceOnUse">
      <stop offset="0" stop-color="#8BE7D5"/>
      <stop offset="1" stop-color="#4BB99F"/>
    </linearGradient>
    <filter id="shadow" x="-20%" y="-20%" width="140%" height="140%">
      <feDropShadow dx="0" dy="7" stdDeviation="5" flood-color="#07111f" flood-opacity="0.28"/>
    </filter>
  </defs>
  <rect x="6" y="6" width="52" height="52" rx="14" fill="url(#bg)" filter="url(#shadow)"/>
  <rect x="11" y="11" width="42" height="42" rx="11" fill="none" stroke="url(#mint)" stroke-width="3.2"/>
  <path d="M18 42V22h6.2l7.8 9.2 7.8-9.2H46v20h-6.2V31.4L32 40.1l-7.8-8.7V42H18Z" fill="#F8FFFC"/>
  <path d="M44 19h4v17.3c0 4.9-3.2 8.2-8.2 8.2-2.8 0-5.1-.9-6.8-2.7l3.1-4.1c1 .9 2 1.3 3.2 1.3 2 0 3.1-1.2 3.1-3.4V19Z" fill="#66D2BA"/>
  <circle cx="18" cy="18" r="2.5" fill="#66D2BA" opacity="0.95"/>
  <circle cx="47" cy="47" r="2.5" fill="#66D2BA" opacity="0.95"/>
</svg>
